<svg xmlns="http://www.w3.org/2000/svg" viewBox="0 0 241 240"><path fill="#1875F0" fill-rule="evenodd" d="M161.908 98.128s.373 16.325-10.98 27.415-25.297 10.077-34.367 7.014c-9.072-3.063-20.766-10.704-23.03-26.39-2.262-15.687 7.977-28.43 7.977-28.43l22.312-27.67 12.995-15.804 11.155-13.772s5.119-6.838 6.578-8.249c.289-.28.585-.463.876-.604l.212-.108.038-.015a2.79 2.79 0 0 1 2.002-.09 2.77 2.77 0 0 1 1.511 1.247l.07.109.059.125c.16.3.292.643.355 1.065.298 2.005.2 10.538.2 10.538l.472 17.696.696 20.426.87 35.497zm28.883-74.924c41.266 29.951 60.192 84.306 42.983 135.143-21.18 62.564-89.068 96.114-151.631 74.935C19.58 212.102-13.968 144.214 7.21 81.65 24.448 30.73 72.625-.968 123.69.415l-16.369 19.34C77.028 25.231 50.872 45.92 40.591 76.29c-15.297 45.185 10.342 94.693 57.265 110.576 46.922 15.885 97.36-7.867 112.657-53.052 10.247-30.27 2.122-62.477-18.463-85.219l-1.26-25.39z"/></svg>